# xmcd
#
# Track frame offsets: 
#        150
#        31175
#        58310
#        90792
#        118395
#        148867
#        178577
#        206457
#        239137
#        270795
#        289155
#        317150
#
# Disc length: 4589 seconds
#
# Revision: 2
# Processed by: cddbd v1.5.2PL0 Copyright (c) Steve Scherf et al.
# Submitted via: ExactAudioCopy v0.95b3
#
DISCID=b111eb0c
DTITLE=Various Artist - That's Eurobeat Vol. 31 [ALCB-408]
DYEAR=1991
DGENRE=Eurobeat
TTITLE0=Alphatown - Body Rock (Johny's Mix)
TTITLE1=Radiorama - Come Back My Lover (Baila Baila Mix)
TTITLE2=Boys Boys Boys - Freedom (High Power Mix)
TTITLE3=Pamela - Saturday Night (Boeno Mix)
TTITLE4=Doctor Groove - Cowboy (G' Mix)
TTITLE5=Superlove - Playboy (L.H. Club Mix)
TTITLE6=A.M. Morales - You Mean Love (Tendence Mix)
TTITLE7=Stop Limit Line - Say You Love Me (Extended Mix)
TTITLE8=Keep Fit - Kep On Dancing (Extended)
TTITLE9=Baby Dee - Emotions (Extended)
TTITLE10=Sharon - I Want You (Extended)
TTITLE11=Chip Chip - Motion (J.J. ''Boom Boom'' Mix)
EXTD=
EXTT0=
EXTT1=
EXTT2=
EXTT3=
EXTT4=
EXTT5=
EXTT6=
EXTT7=
EXTT8=
EXTT9=
EXTT10=
EXTT11=
PLAYORDER=
